<svg id="abta" data-name="Layer 1" xmlns="http://www.w3.org/2000/svg"
     viewBox="0 0 522.83 205.54" width="153" height="60">
    <defs>
        <style>#abta .cls-1{fill:#231f20;}</style>
    </defs>
    <title>abta-variant-b</title>
    <path class="cls-1"
          d="M57.8,84.22v5.4L23.72,123.71a70.12,70.12,0,0,1-5.4-5.39l34.11-34.1Z"/>
    <path class="cls-1" d="M40.41,68.09"/>
    <path class="cls-1"
          d="M71.2,0c-2.25,0-4.47.11-6.67.31V11.77h0V137.56h0V142c2.2.21,4.41.33,6.67.33A71.19,71.19,0,0,0,71.2,0Zm26,77.68A96.3,96.3,0,0,1,95.46,91H78.78V77.68ZM78.78,64.38V51.09h16.6a95.89,95.89,0,0,1,1.82,13.29Zm32.44,13.29h16.7A56.82,56.82,0,0,1,124.79,91H109.43A97,97,0,0,0,111.22,77.68Zm0-13.29a97,97,0,0,0-1.86-13.29h15.32a56.46,56.46,0,0,1,3.2,13.29Zm6.31-26.58h-12A87.21,87.21,0,0,0,96.43,20,57.18,57.18,0,0,1,117.51,37.8Zm-26,0H78.78V14.61A86.42,86.42,0,0,1,91.55,37.8Zm-12.77,90V104.26h12.9a86.41,86.41,0,0,1-12.88,23.51Zm17.78-5.44a87.37,87.37,0,0,0,9.09-18.08h12.07A57.4,57.4,0,0,1,96.56,122.34Z"/>
    <path class="cls-1"
          d="M300.53,133.8H263.16V16H300c23.79,0,34.69,16.27,34.69,30.57,0,11.27-4.66,18.78-14.12,24.49v.36c13.6,3,21.79,12.52,21.79,26.81C342.34,115,330.18,133.8,300.53,133.8ZM297,34.26H284.79V65h11.42C305.9,65,313,58.75,313,48.9,313,40.51,307.31,34.26,297,34.26ZM301.05,83H284.79v32.54h13.77c14.48,0,21.62-6.46,21.62-17.16C320.17,89.29,313.19,83,301.05,83Z"/>
    <path class="cls-1"
          d="M429.1,34.07H397.73V133.8H375.92V34.07H341.79V16h94.35Z"/>
    <path class="cls-1"
          d="M230.25,133.8l-11.64-29.53h-42L165.66,133.8H144L189.58,16h16.21L253,133.8ZM202.34,59.54a118.93,118.93,0,0,1-4.47-14.65h-.19c-.7,4.1-2.3,8.75-4.28,14.31L183.19,86.63h28.67Z"/>
    <path class="cls-1"
          d="M500.09,133.8l-11.63-29.53H446.41l-10.9,29.53H413.85L459.42,16h16.22L522.83,133.8ZM472.2,59.54a118.74,118.74,0,0,1-4.47-14.65h-.19c-.7,4.1-2.31,8.75-4.29,14.31L453,86.63H481.7Z"/>
    <path class="cls-1"
          d="M57.8,57.76v-5.4L23.72,18.27a72.26,72.26,0,0,0-5.4,5.38L52.43,57.76Z"/>
    <path class="cls-1"
          d="M57.8,64.55H.32C.11,66.73,0,68.94,0,71.18s.11,4.44.32,6.63H57.8Z"/>
    <path class="cls-1" d="M14.58,28.17A70.37,70.37,0,0,0,1.41,57.76H44.17Z"/>
    <path class="cls-1" d="M57.8,44.1V1.37A70.56,70.56,0,0,0,28.23,14.53Z"/>
    <path class="cls-1" d="M28.24,127.45A70.7,70.7,0,0,0,57.8,140.61V97.89Z"/>
    <path class="cls-1" d="M44.17,84.22H1.41a70.45,70.45,0,0,0,13.17,29.59Z"/>
    <path class="cls-1"
          d="M48.33,204.91h-7l-6.4-14.14H14.49l-6,14.14h-7L22,156.66h4.85ZM17.17,184.58H32.08l-7.74-17.37Z"/>
    <path class="cls-1"
          d="M53.6,156.94H67.53c10.34,0,14.77,6.19,14.77,12.24,0,5-2.32,8.23-7.32,10.27v.14c7.17,1.34,11.54,6,11.54,12.52,0,5.91-4.43,12.8-16.46,12.8H53.6Zm6.89,20.54h4.57c6.82,0,10.13-2.53,10.13-7.67,0-3.59-2-6.68-8.37-6.68H60.5Zm0,21.24h8.65c8.09,0,10.27-4,10.27-7.6,0-4.36-3.38-7.46-10.62-7.46H60.5Z"/>
    <path class="cls-1"
          d="M129.22,163.13h-16.6v41.78h-6.89V163.13H89.12v-6.19h40.09Z"/>
    <path class="cls-1"
          d="M170.29,204.91h-7l-6.4-14.14h-20.4l-6,14.14h-7L144,156.66h4.85Zm-31.16-20.33H154l-7.74-17.37Z"/>
    <path class="cls-1"
          d="M239.51,204.91H233.6L201.52,168v36.93h-6.47v-48h5.49L233,194.08V156.94h6.47Z"/>
    <path class="cls-1"
          d="M281.08,188.8c0,10-7,16.74-17.09,16.74-9.71,0-16.67-7-16.67-16.74,0-9.07,7.25-16.11,16.67-16.11C273.9,172.7,281.08,179.45,281.08,188.8Zm-27.36,0c0,6.68,4.15,11.11,10.2,11.11,6.61,0,10.76-4.22,10.76-11,0-6.12-4.5-10.55-10.76-10.55C258,178.32,253.71,182.76,253.71,188.8Z"/>
    <path class="cls-1"
          d="M348.11,205.34h-1.34L331,166.08l-15.9,39.25h-1.34l-19.41-48.4h6.89L314.49,190l13.29-33.06h6.54L347.69,190l13.08-33.06h6.82Z"/>
    <path class="cls-1"
          d="M373.36,158.35a19.73,19.73,0,0,1,9.21-2c8.58,0,14.14,4.92,14.14,12.52,0,5.35-1.76,8.37-6.12,10.76,4.78,1.48,6.89,6.47,6.89,11.39,0,8.58-6.26,14.56-15.12,14.56a22.66,22.66,0,0,1-10.2-2.74v-7.46A19,19,0,0,0,382.86,199c4.71,0,7.74-3,7.74-7.67s-3.45-8.37-10.27-8V177c6.33,0,9.5-2.6,9.5-7s-3.24-7.17-8.3-7.17a18.77,18.77,0,0,0-8.16,2Z"/>
    <path class="cls-1"
          d="M435.61,204.91H405.22v-.49c5.28-6.4,12.59-15.12,16.67-22.09,2.25-3.87,3.38-6.26,3.38-10.27,0-5.28-3.52-9-8.23-9-3.45,0-7,1.55-10.83,6.47v-8.65c3.87-3.09,7.46-4.57,11.32-4.57,8.65,0,14.63,6.12,14.63,15,0,7.81-4.22,14.35-14.91,27.08h18.36Z"/>
    <path class="cls-1"
          d="M466.42,163.13H451.37v12c10.83-.63,17.44,6.19,17.44,15.05s-6.61,15.33-15.69,15.33a23.74,23.74,0,0,1-11.61-3v-7.11A18.7,18.7,0,0,0,452,199c5.42,0,9.92-3.94,9.92-8.65,0-6.12-6.26-11-16.81-8.44v-25h21.31Z"/>
    <path class="cls-1"
          d="M502.36,180.08l20.47,24.83h-8.3l-16.32-19.84-16.53,19.84h-8.37L494,180.08l-19.2-23.14h8.37l15.05,18.29,15-18.29h8.3Z"/>
</svg>
