<svg id="abta-atol-iata" data-name="Layer 1" xmlns="http://www.w3.org/2000/svg"
     viewBox="0 0 1102.4 228.34" width="290" height="60">
    <defs>
        <style>#abta-atol-iata .cls-1{fill:#fff;}</style>
    </defs>
    <title>abta-atol-iata-logos-variant-a</title>
    <path class="cls-1"
          d="M1032.71,129.88a47.31,47.31,0,0,1-39.27-26.29c-18-35.85,19.45-55.12,19.45-55.12l33.24,5.91Z"/>
    <path class="cls-1"
          d="M996.37,141.24a8,8,0,0,0-4.55.24,3.44,3.44,0,0,0-1,5.79,8.37,8.37,0,0,0,4.2,1.82,8.08,8.08,0,0,0,4.53-.26,3.33,3.33,0,0,0,2.13-2.6,3.38,3.38,0,0,0-1.09-3.21,8.21,8.21,0,0,0-4.17-1.78m-16.48-25.07c-21.89-22.87-22.05-50-8.33-74.88L953.34,38,933,153.58l92.62,16.31,6.14-34.52s-29.93,3.66-51.84-19.19m-21.5,28.13-1-2.56-8.17-1.43-1.9,2-4.81-.85,9.86-9.76,5.2.91,5.84,12.56Zm25.46-4.94-6.6-1.17-1.63,9.17-4.65-.82,1.64-9.17L966,136.17l.35-2,17.89,3.17Zm22.41,7.68c-.37,2-1.76,3.34-4.16,4a16.38,16.38,0,0,1-7.46,0,16,16,0,0,1-7-2.58q-3.06-2.18-2.55-5.2c.37-2,1.78-3.36,4.19-4a21.42,21.42,0,0,1,14.47,2.56c2,1.43,2.87,3.17,2.53,5.2m18.06,9-15.55-2.75,2-11.15,4.6.82-1.63,9.13,11,2ZM950.81,138.6l5.62,1-2-4.88Z"/>
    <path class="cls-1"
          d="M875.81,94.35a114.16,114.16,0,1,0,132.25-92.6,114.29,114.29,0,0,0-132.25,92.6m93.89,125a106.78,106.78,0,1,1,123.7-86.6,106.9,106.9,0,0,1-123.7,86.6"/>
    <path class="cls-1"
          d="M890.31,138.79c-.16-.87-.28-1.76-.52-2.6s-.56-1.65-.87-2.47l23.2-6.33,2.28,8.3c1.28,4.71.07,7.76-3.75,8.8-6,1.63-8.5-2.41-10.17-8.48Zm12-3.3a14.52,14.52,0,0,0,.85,2.17c1.21,2,3.36,2.32,5.42,1.76,2.71-.74,4.12-2.62,3.64-4.38l-.58-2.08Z"/>
    <path class="cls-1"
          d="M917.83,146.08l3.77,6.44c.82,1.43,2.18,3.58,2.25,5.25a5.19,5.19,0,0,1-2.78,5.16c-3,1.76-5.94.93-8.2-1.52-1.93,3.36-3.61,6.87-5.36,10.34L906.36,174c-.48-1-.93-1.91-1.47-2.84s-1.15-1.76-1.76-2.65l4.25-7.31c.54-.93,1.44-2.6,2.19-3.92l-.11-.22-9.71,5.68c-.37-.78-.74-1.6-1.17-2.34s-1-1.45-1.47-2.19Zm-7.08,10.26c1.57,3.34,4,4,7.1,2.21a8,8,0,0,0,1.43-1.06c2.23-2,.65-4.05-.43-5.9Z"/>
    <path class="cls-1"
          d="M921.21,190.25c-5.81-5.1-6.74-12-1.51-18,4.6-5.25,12.13-6.14,18.69-.39,7.51,6.57,5.08,13.81,1.55,17.93-4.48,5.16-12.27,6.07-18.74.41m2.2-13.36c-3,3.43-4.63,8.43-.68,11.88s9.44,1.11,13.27-3.27c3-3.41,4.81-8.7.86-12.17-3.66-3.21-8.27-2.34-13.44,3.56"/>
    <path class="cls-1"
          d="M950.59,207.86c-.78-.39-1.54-.85-2.34-1.19s-1.65-.61-2.49-.89L954.33,186a49.75,49.75,0,0,0-6.18-2.12,11.26,11.26,0,0,0,.76-1.32,9.16,9.16,0,0,0,.42-1.41l16.57,7.16a12.48,12.48,0,0,0-.75,1.28,10.48,10.48,0,0,0-.43,1.45,53.91,53.91,0,0,0-5.55-2.93Z"/>
    <path class="cls-1"
          d="M982.62,191.2a10.38,10.38,0,0,0-.43,1.45,8.68,8.68,0,0,0-.07,1.52,51.71,51.71,0,0,0-7.92-1.84L973,199.75l3.6.63a32.13,32.13,0,0,0,4.29.41,9.66,9.66,0,0,0-.41,1.45,11.61,11.61,0,0,0-.09,1.52,30.77,30.77,0,0,0-4.19-1l-3.6-.61-1.5,8.78a66.49,66.49,0,0,0,8.07.87,8.85,8.85,0,0,0-.42,1.45,11.59,11.59,0,0,0-.08,1.52l-13.16-2.23,4-23.53Z"/>
    <path class="cls-1"
          d="M1007.7,209.61l-.48,3.08a14.9,14.9,0,0,1-6.75,2.17c-7.46.72-13.55-3.34-14.26-10.47-.88-9.11,5-13.88,12.6-14.61a16,16,0,0,1,7.29,1c-.21,1.21-.3,2.43-.46,3.69l-.49,0a7.35,7.35,0,0,0-6.11-2.65c-5.78.56-7.58,6.33-7.08,11.45.58,6,3.91,9.87,9.29,9.35a9.82,9.82,0,0,0,6-3.21Z"/>
    <path class="cls-1"
          d="M1027.57,207.16c-.85.26-1.7.48-2.51.8s-1.6.74-2.38,1.13L1014.8,189a46.05,46.05,0,0,0-5.88,2.86,11.27,11.27,0,0,0-.39-1.47,9.48,9.48,0,0,0-.7-1.3l16.79-6.61a8.61,8.61,0,0,0,.38,1.43,9.83,9.83,0,0,0,.7,1.35,51.52,51.52,0,0,0-6,1.84Z"/>
    <path class="cls-1"
          d="M1038.54,172.77a9.92,9.92,0,0,0,.72,1.34,12.35,12.35,0,0,0,1,1.13,49.45,49.45,0,0,0-6.9,4.25l4.34,6.16,3-2.1a31.48,31.48,0,0,0,3.34-2.73,7.2,7.2,0,0,0,1.75,2.47,31.93,31.93,0,0,0-3.71,2.21l-3,2.1,5.14,7.29a70.55,70.55,0,0,0,6.33-5.07,11.42,11.42,0,0,0,.71,1.34,12.39,12.39,0,0,0,1,1.13l-10.91,7.7-13.76-19.52Z"/>
    <path class="cls-1"
          d="M1049.44,160.74c4.87-5.7,10.88-4.88,15.38-1.3,6.22,4.9,6.44,12.19,2,17.82l-6.09,7.7L1042,170.15Zm13,18.82,1.84-2.32c3-3.79,3.38-8.2-3-13.27-5.18-4.08-9.14-3.25-12.21.63l-2.12,2.69Z"/>
    <path class="cls-1"
          d="M965.62,27.88l10.85-13,5.54,1-2.6,14.78,2.84.5-.61,3.39-2.83-.5L978,38.78,973.72,38l.85-4.77L965,31.56Zm9.54,2,1.77-10h-.07l-7.31,9Z"/>
    <path class="cls-1"
          d="M982.9,39.65l.67-3.85c.69-.44,1.66-1.08,2.91-1.91a45.12,45.12,0,0,0,3.84-2.71A29.43,29.43,0,0,0,993.9,28a7,7,0,0,0,1.81-3.25,2.87,2.87,0,0,0-.73-2.58A4.66,4.66,0,0,0,992.53,21a7.61,7.61,0,0,0-2.88.06,15.54,15.54,0,0,0-2.72.87l.31-3.87a15.47,15.47,0,0,1,7-.44q6.93,1.24,5.9,8A9.25,9.25,0,0,1,998.73,29,16.14,16.14,0,0,1,996,32a65.59,65.59,0,0,1-6.81,5.07l9.32,1.65-.63,3.59Z"/>
    <path class="cls-1"
          d="M1018.08,26.45a10.54,10.54,0,0,0-1.7-1,6.84,6.84,0,0,0-2-.64,4.35,4.35,0,0,0-4.41,1.59,10.65,10.65,0,0,0-2.15,4.64l.05.08a5,5,0,0,1,4.72-1.54q6.41,1.3,5.27,8.14a9.41,9.41,0,0,1-2.84,5.65c-1.5,1.28-3.49,1.69-6,1.29-3-.62-4.81-2.09-5.46-4.43a11.15,11.15,0,0,1-.5-3.62,20.79,20.79,0,0,1,.33-4,19.51,19.51,0,0,1,3.48-8.55q2.65-3.71,7.95-2.91a14,14,0,0,1,4.53,1.64Zm-7.1,6.34a2.52,2.52,0,0,0-2.52.89,6.48,6.48,0,0,0-1.26,2.95,5.4,5.4,0,0,0,.24,3,2.69,2.69,0,0,0,2.14,1.67,2.47,2.47,0,0,0,2.5-.92,6,6,0,0,0,1.17-2.7,6.39,6.39,0,0,0-.17-3.17,2.55,2.55,0,0,0-2.1-1.7"/>
    <polygon class="cls-1"
             points="1024.04 23.25 1038.33 25.77 1037.66 29.57 1026.41 47.32 1021.59 46.47 1033.23 28.57 1023.41 26.83 1024.04 23.25"/>
    <path class="cls-1"
          d="M694,65.63V45.14H677a56.29,56.29,0,0,0,5.29,22.39,47.23,47.23,0,0,1,11.7-1.9"/>
    <path class="cls-1"
          d="M707.51,70.52a43.87,43.87,0,0,0-10.2-1.6V84a56.09,56.09,0,0,0,10.2-13.43"/>
    <path class="cls-1"
          d="M694,84v-15a43.1,43.1,0,0,0-10.19,1.6A55.69,55.69,0,0,0,694,84"/>
    <path class="cls-1"
          d="M694,41.84V21.35a47.07,47.07,0,0,1-11.6-1.88A56.26,56.26,0,0,0,677,41.84Z"/>
    <path class="cls-1"
          d="M717.59,45.14a59.58,59.58,0,0,1-5.43,23.45,45.93,45.93,0,0,1,13,7.51,43.89,43.89,0,0,0,14.43-31Z"/>
    <path class="cls-1"
          d="M673.74,45.36h-22a43.83,43.83,0,0,0,14.45,31,45.91,45.91,0,0,1,13-7.54,59.66,59.66,0,0,1-5.44-23.46"/>
    <path class="cls-1"
          d="M673.75,41.84a59.29,59.29,0,0,1,5.53-23.42,46.07,46.07,0,0,1-13.11-7.58,43.91,43.91,0,0,0-14.44,31Z"/>
    <path class="cls-1"
          d="M694,18.07V3.21a56.61,56.61,0,0,0-10.08,13.27A44,44,0,0,0,694,18.07"/>
    <path class="cls-1"
          d="M697.31,21.35v20.5h17a56.48,56.48,0,0,0-5.38-22.37,46.19,46.19,0,0,1-11.61,1.86"/>
    <path class="cls-1"
          d="M710.71,71.55A59.18,59.18,0,0,1,698.5,87.37a43.72,43.72,0,0,0,24.09-9.11,43,43,0,0,0-11.88-6.71"/>
    <path class="cls-1"
          d="M697.31,45.14V65.63A47,47,0,0,1,709,67.51a56.09,56.09,0,0,0,5.28-22.38Z"/>
    <path class="cls-1"
          d="M680.63,71.56a42.89,42.89,0,0,0-11.86,6.72,43.79,43.79,0,0,0,24,9.1,58.86,58.86,0,0,1-12.19-15.82"/>
    <path class="cls-1"
          d="M725.18,10.88a46.24,46.24,0,0,1-13.13,7.57,59.38,59.38,0,0,1,5.53,23.4h22a43.84,43.84,0,0,0-14.42-31"/>
    <path class="cls-1"
          d="M697.31,18.07a43.5,43.5,0,0,0,10.08-1.57A56,56,0,0,0,697.31,3.21Z"/>
    <path class="cls-1"
          d="M698,.28a59.12,59.12,0,0,1,12.34,15.88,42.29,42.29,0,0,0,12-6.75A43.76,43.76,0,0,0,698,.28"/>
    <path class="cls-1"
          d="M681,16.16A58.72,58.72,0,0,1,693.33.28,43.61,43.61,0,0,0,669,9.4a42.77,42.77,0,0,0,12,6.75"/>
    <path class="cls-1"
          d="M745.2,53.73a50.61,50.61,0,0,1-37.3,38.86v3.74s7.83,10.86,9.51,11.2,58.18.16,59.2,0c.33,0,6-5.21,13.7-12.26H738.7c1-.81,2-1.68,2.92-2.57h51.49c3.46-3.19,7.2-6.66,10.94-10.13H750.5c.61-.85,1.18-1.71,1.73-2.58h54.59L818.5,69.08H758c.43-1.07.85-2.15,1.23-3.22h62.74c5.81-5.48,9.84-9.33,10-9.66a29.08,29.08,0,0,1,1.68-2.5Z"/>
    <path class="cls-1"
          d="M646.14,56.51a50.64,50.64,0,0,0,37.3,38.86v3.74s-7.83,10.86-9.5,11.2-58.2.16-59.2,0c-.33,0-6-5.21-13.7-12.26h51.61c-1-.81-2-1.68-2.92-2.57H598.24c-3.47-3.19-7.21-6.66-11-10.13h53.56c-.61-.85-1.19-1.71-1.75-2.58H584.51c-4.09-3.82-8.11-7.57-11.68-10.92h60.55c-.43-1.07-.86-2.15-1.24-3.22H569.4c-5.8-5.47-9.83-9.33-10-9.66-.63-1.11-1.67-2.5-1.67-2.5Z"/>
    <polygon class="cls-1"
             points="606.21 121.65 626.86 121.65 616.49 176.72 595.83 176.72 606.21 121.65"/>
    <path class="cls-1"
          d="M654.94,121.65h22.24l7.3,55.07H664.52l-.39-7.33H650.62l-3.08,7.33H625.62Zm11.18,34.73-.23-5.92c-.09-1.93-.25-4.38-.25-7.31,0-1.17,0-2.47.09-3.86-1.18,3.69-2.2,6.4-2.83,7.94L659,156.38Z"/>
    <polygon class="cls-1"
             points="706.42 138.38 694.39 138.38 697.61 121.65 741.78 121.65 738.64 138.38 726.99 138.38 719.77 176.72 699.2 176.72 706.42 138.38"/>
    <path class="cls-1"
          d="M765.87,121.65H788.1l7.33,55.07h-20l-.39-7.33H761.55l-3.07,7.33H736.56Zm-.54,34.73-.23-5.92c-.08-1.93-.24-4.38-.24-7.31,0-1.17,0-2.47.08-3.86-1.18,3.69-2.21,6.4-2.82,7.94l-3.94,9.15Z"/>
    <path class="cls-1"
          d="M632.54,193.83a14.23,14.23,0,0,1,2.52,8.22,18.87,18.87,0,0,1-1.19,6.48,18.26,18.26,0,0,1-3.47,5.88,15.92,15.92,0,0,1-6.75,4.42,27.28,27.28,0,0,1-5.78,1.28l-.19-.85a26.43,26.43,0,0,0,3.62-1.06,13.37,13.37,0,0,0,4.17-2.52,18.09,18.09,0,0,0,3.55-4.75,17,17,0,0,0,1.67-4.38l-.74.54a8.73,8.73,0,0,1-3.63,1.56,8.82,8.82,0,0,1-2,.26,7,7,0,0,1-5.64-2.52,9.18,9.18,0,0,1-2.08-6,10.92,10.92,0,0,1,2.47-7.35,8.6,8.6,0,0,1,13.49.8m-3.6,12.42c1-.52,1.59-1,1.73-1.34a7.3,7.3,0,0,0,.15-1.56c0-.89.06-1.63.06-2.19a15,15,0,0,0-1.47-7.09,4.64,4.64,0,0,0-4.3-2.73,3.84,3.84,0,0,0-3.32,1.87,10,10,0,0,0-1.27,5.57,13.5,13.5,0,0,0,1.18,5.68,4.31,4.31,0,0,0,4.29,2.6,6.16,6.16,0,0,0,2.94-.8"/>
    <path class="cls-1"
          d="M649.58,190.44a.56.56,0,0,1,0,.24v25.24c0,1.06.28,1.73.86,2a8.74,8.74,0,0,0,3.23.52V219H641.84v-.58a6.8,6.8,0,0,0,3.32-.72c.52-.37.78-1.21.78-2.49V195.87a3.66,3.66,0,0,0-.25-1.52c-.16-.37-.53-.52-1.09-.52a4.43,4.43,0,0,0-1.41.28c-.6.22-1.14.41-1.64.65v-.61l7.69-3.86h.25a.32.32,0,0,1,.1.15"/>
    <path class="cls-1"
          d="M659.51,218.57A139.18,139.18,0,0,0,670,206.9a12.17,12.17,0,0,0,2.78-7.24,6.26,6.26,0,0,0-1.69-4.71,5.74,5.74,0,0,0-4-1.63,5.9,5.9,0,0,0-4.69,2.1,12.07,12.07,0,0,0-1.91,3.53l-.89-.2c.69-3.23,1.89-5.49,3.58-6.74a8.8,8.8,0,0,1,5.4-1.89,7.73,7.73,0,0,1,5.77,2.23,7.44,7.44,0,0,1,2.21,5.44,10.82,10.82,0,0,1-2.4,6.61,132,132,0,0,1-10.33,11.34h9.65a6,6,0,0,0,2.84-.48,6.07,6.07,0,0,0,1.84-2.34l.54.26-2.3,5.85H659.51Z"/>
    <path class="cls-1"
          d="M692.52,190.44s0,.11,0,.24v25.24c0,1.06.28,1.73.87,2a8.65,8.65,0,0,0,3.23.52V219H684.78v-.58a6.85,6.85,0,0,0,3.33-.72c.51-.37.77-1.21.77-2.49V195.87a3.65,3.65,0,0,0-.25-1.52c-.16-.37-.53-.52-1.09-.52a4.55,4.55,0,0,0-1.41.28c-.58.22-1.14.41-1.64.65v-.61l7.69-3.86h.25c.08.06.1.11.1.15"/>
    <path class="cls-1"
          d="M702.45,218.57a137.48,137.48,0,0,0,10.5-11.67,12.17,12.17,0,0,0,2.78-7.24A6.22,6.22,0,0,0,714,195a5.72,5.72,0,0,0-4-1.63,5.92,5.92,0,0,0-4.69,2.1,11.87,11.87,0,0,0-1.9,3.53l-.9-.2c.69-3.23,1.89-5.49,3.58-6.74a8.8,8.8,0,0,1,5.4-1.89,7.71,7.71,0,0,1,5.77,2.23,7.49,7.49,0,0,1,2.21,5.44,10.87,10.87,0,0,1-2.39,6.61,134.64,134.64,0,0,1-10.34,11.34h9.65a6,6,0,0,0,2.84-.48,6.17,6.17,0,0,0,1.85-2.34l.53.26-2.3,5.85H702.45Z"/>
    <path class="cls-1"
          d="M729,216.59a6.26,6.26,0,0,0,3.21,1.19,5,5,0,0,0,4.36-2A7.26,7.26,0,0,0,738,211.5a6.8,6.8,0,0,0-1.16-3.95c-1.29-1.93-3.48-2.88-6.57-2.88a4,4,0,0,0-.52,0c-.16,0-.36,0-.6,0l0-.54a19.17,19.17,0,0,0,5.24-2.78,5.14,5.14,0,0,0,1.91-4.16,4.16,4.16,0,0,0-1.51-3.47,5.53,5.53,0,0,0-3.45-1.19,5.7,5.7,0,0,0-4.05,1.69,13.66,13.66,0,0,0-2,2.86l-.66-.15a9.71,9.71,0,0,1,3.12-5.1A7.92,7.92,0,0,1,733,190a6.69,6.69,0,0,1,4.94,1.76,5.63,5.63,0,0,1,.29,7.83,14.46,14.46,0,0,1-2.55,2.17,11,11,0,0,1,3.25,2,7.36,7.36,0,0,1,2.3,5.57,9.48,9.48,0,0,1-3.12,7q-3.12,3-8.91,3a6.22,6.22,0,0,1-3.61-.76,2.11,2.11,0,0,1-1.05-1.65,1.84,1.84,0,0,1,.37-1,1.23,1.23,0,0,1,1.11-.5,6.21,6.21,0,0,1,3,1.19"/>
    <path class="cls-1"
          d="M761.35,193.83a14.24,14.24,0,0,1,2.53,8.22,18.91,18.91,0,0,1-1.21,6.48,18.05,18.05,0,0,1-3.47,5.88,16,16,0,0,1-6.74,4.42,27.13,27.13,0,0,1-5.78,1.28l-.21-.85a26,26,0,0,0,3.62-1.06,13.56,13.56,0,0,0,4.18-2.52,17.88,17.88,0,0,0,3.55-4.75,17.36,17.36,0,0,0,1.67-4.38l-.74.54a8.8,8.8,0,0,1-3.63,1.56,8.89,8.89,0,0,1-2,.26,7,7,0,0,1-5.65-2.52,9.18,9.18,0,0,1-2.08-6,10.92,10.92,0,0,1,2.47-7.35,8.61,8.61,0,0,1,13.5.8m-3.6,12.42c1-.52,1.59-1,1.73-1.34a8.65,8.65,0,0,0,.14-1.56c0-.89.07-1.63.07-2.19a14.84,14.84,0,0,0-1.47-7.09,4.64,4.64,0,0,0-4.29-2.73,3.82,3.82,0,0,0-3.32,1.87,9.91,9.91,0,0,0-1.27,5.57,13.33,13.33,0,0,0,1.18,5.68,4.3,4.3,0,0,0,4.29,2.6,6.2,6.2,0,0,0,2.94-.8"/>
    <path class="cls-1"
          d="M57.8,97.8v5.4L23.72,137.29a70.12,70.12,0,0,1-5.4-5.39L52.43,97.8Z"/>
    <path class="cls-1" d="M40.41,81.66"/>
    <path class="cls-1"
          d="M71.2,13.57c-2.25,0-4.47.11-6.67.31V25.35h0V151.13h0v4.49c2.2.21,4.41.33,6.67.33a71.19,71.19,0,0,0,0-142.37Zm26,77.68a96.3,96.3,0,0,1-1.76,13.29H78.78V91.25ZM78.78,78V64.67h16.6A95.89,95.89,0,0,1,97.19,78Zm32.44,13.29h16.7a56.82,56.82,0,0,1-3.13,13.29H109.43A97,97,0,0,0,111.22,91.25Zm0-13.29a97,97,0,0,0-1.86-13.29h15.32A56.46,56.46,0,0,1,127.87,78Zm6.31-26.58h-12a87.21,87.21,0,0,0-9.06-17.85A57.18,57.18,0,0,1,117.51,51.38Zm-26,0H78.78V28.19A86.42,86.42,0,0,1,91.55,51.38Zm-12.77,90V117.84h12.9a86.41,86.41,0,0,1-12.88,23.51Zm17.78-5.44a87.37,87.37,0,0,0,9.09-18.08h12.07A57.4,57.4,0,0,1,96.56,135.91Z"/>
    <path class="cls-1"
          d="M300.53,147.37H263.16V29.58H300c23.79,0,34.69,16.27,34.69,30.57,0,11.27-4.66,18.78-14.12,24.49V85c13.6,3,21.79,12.52,21.79,26.81C342.34,128.62,330.18,147.37,300.53,147.37ZM297,47.83H284.79V78.56h11.42c9.69,0,16.82-6.24,16.82-16.09C313,54.08,307.31,47.83,297,47.83Zm4.1,48.78H284.79v32.54h13.77c14.48,0,21.62-6.46,21.62-17.16C320.17,102.86,313.19,96.61,301.05,96.61Z"/>
    <path class="cls-1"
          d="M429.1,47.64H397.73v99.73H375.92V47.64H341.79V29.58h94.35Z"/>
    <path class="cls-1"
          d="M230.25,147.37l-11.64-29.53h-42l-10.91,29.53H144L189.58,29.55h16.21L253,147.37ZM202.34,73.11a118.93,118.93,0,0,1-4.47-14.65h-.19c-.7,4.11-2.3,8.75-4.28,14.31l-10.21,27.44h28.67Z"/>
    <path class="cls-1"
          d="M500.09,147.37l-11.63-29.53H446.41l-10.9,29.53H413.85L459.42,29.55h16.22l47.19,117.82ZM472.2,73.11a118.74,118.74,0,0,1-4.47-14.65h-.19c-.7,4.11-2.31,8.75-4.29,14.31L453,100.21H481.7Z"/>
    <path class="cls-1"
          d="M57.8,71.33v-5.4L23.72,31.84a72.26,72.26,0,0,0-5.4,5.38L52.43,71.33Z"/>
    <path class="cls-1"
          d="M57.8,78.13H.32C.11,80.31,0,82.52,0,84.75s.11,4.44.32,6.63H57.8Z"/>
    <path class="cls-1" d="M14.58,41.74A70.37,70.37,0,0,0,1.41,71.33H44.17Z"/>
    <path class="cls-1" d="M57.8,57.67V14.95A70.56,70.56,0,0,0,28.23,28.1Z"/>
    <path class="cls-1" d="M28.24,141A70.7,70.7,0,0,0,57.8,154.19V111.46Z"/>
    <path class="cls-1" d="M44.17,97.8H1.41a70.45,70.45,0,0,0,13.17,29.59Z"/>
    <path class="cls-1"
          d="M48.33,218.49h-7l-6.4-14.14H14.49l-6,14.14h-7L22,170.23h4.85ZM17.17,198.16H32.08l-7.74-17.37Z"/>
    <path class="cls-1"
          d="M53.6,170.51H67.53c10.34,0,14.77,6.19,14.77,12.24,0,5-2.32,8.23-7.32,10.27v.14c7.17,1.34,11.54,6,11.54,12.52,0,5.91-4.43,12.8-16.46,12.8H53.6Zm6.89,20.54h4.57c6.82,0,10.13-2.53,10.13-7.67,0-3.59-2-6.68-8.37-6.68H60.5Zm0,21.24h8.65c8.09,0,10.27-4,10.27-7.6,0-4.36-3.38-7.46-10.62-7.46H60.5Z"/>
    <path class="cls-1"
          d="M129.22,176.7h-16.6v41.78h-6.89V176.7H89.12v-6.19h40.09Z"/>
    <path class="cls-1"
          d="M170.29,218.49h-7l-6.4-14.14h-20.4l-6,14.14h-7L144,170.23h4.85Zm-31.16-20.33H154l-7.74-17.37Z"/>
    <path class="cls-1"
          d="M239.51,218.49H233.6l-32.08-36.93v36.93h-6.47v-48h5.49L233,207.65V170.51h6.47Z"/>
    <path class="cls-1"
          d="M281.08,202.38c0,10-7,16.74-17.09,16.74-9.71,0-16.67-7-16.67-16.74,0-9.07,7.25-16.11,16.67-16.11C273.9,186.27,281.08,193,281.08,202.38Zm-27.36,0c0,6.68,4.15,11.11,10.2,11.11,6.61,0,10.76-4.22,10.76-11,0-6.12-4.5-10.55-10.76-10.55C258,191.9,253.71,196.33,253.71,202.38Z"/>
    <path class="cls-1"
          d="M348.11,218.91h-1.34L331,179.66l-15.9,39.25h-1.34l-19.41-48.4h6.89l13.22,33.06,13.29-33.06h6.54l13.36,33.06,13.08-33.06h6.82Z"/>
    <path class="cls-1"
          d="M373.36,171.92a19.73,19.73,0,0,1,9.21-2c8.58,0,14.14,4.92,14.14,12.52,0,5.35-1.76,8.37-6.12,10.76,4.78,1.48,6.89,6.47,6.89,11.39,0,8.58-6.26,14.56-15.12,14.56a22.66,22.66,0,0,1-10.2-2.74v-7.46a19,19,0,0,0,10.69,3.66c4.71,0,7.74-3,7.74-7.67s-3.45-8.37-10.27-8v-6.33c6.33,0,9.5-2.6,9.5-7s-3.24-7.17-8.3-7.17a18.77,18.77,0,0,0-8.16,2Z"/>
    <path class="cls-1"
          d="M435.61,218.49H405.22V218c5.28-6.4,12.59-15.12,16.67-22.09,2.25-3.87,3.38-6.26,3.38-10.27,0-5.28-3.52-9-8.23-9-3.45,0-7,1.55-10.83,6.47v-8.65c3.87-3.09,7.46-4.57,11.32-4.57,8.65,0,14.63,6.12,14.63,15,0,7.81-4.22,14.35-14.91,27.08h18.36Z"/>
    <path class="cls-1"
          d="M466.42,176.7H451.37v12c10.83-.63,17.44,6.19,17.44,15.05s-6.61,15.33-15.69,15.33a23.74,23.74,0,0,1-11.61-3v-7.11A18.7,18.7,0,0,0,452,212.58c5.42,0,9.92-3.94,9.92-8.65,0-6.12-6.26-11-16.81-8.44v-25h21.31Z"/>
    <path class="cls-1"
          d="M502.36,193.66l20.47,24.83h-8.3l-16.32-19.84-16.53,19.84h-8.37L494,193.66l-19.2-23.14h8.37l15.05,18.29,15-18.29h8.3Z"/>
</svg>
