<svg id="atol-protected" data-name="Layer 1" xmlns="http://www.w3.org/2000/svg"
     viewBox="0 0 228.34 228.34">
    <defs>
        <style>#atol-protected .cls-1{fill:#231f20;}</style>
    </defs>
    <title>atol-protected-variant-b</title>
    <path class="cls-1"
          d="M158.65,129.88a47.31,47.31,0,0,1-39.27-26.29c-18-35.85,19.45-55.12,19.45-55.12l33.24,5.91Z"/>
    <path class="cls-1"
          d="M122.31,141.24a8,8,0,0,0-4.55.24,3.44,3.44,0,0,0-1,5.79,8.37,8.37,0,0,0,4.2,1.82,8.08,8.08,0,0,0,4.53-.26,3.33,3.33,0,0,0,2.13-2.6,3.38,3.38,0,0,0-1.09-3.21,8.21,8.21,0,0,0-4.17-1.78m-16.48-25.07c-21.89-22.87-22.05-50-8.33-74.88L79.27,38,58.91,153.58l92.62,16.31,6.14-34.52s-29.93,3.66-51.84-19.19M84.33,144.3l-1-2.56-8.17-1.43-1.9,2-4.81-.85,9.86-9.76,5.2.91,5.84,12.56Zm25.46-4.94-6.6-1.17-1.63,9.17-4.65-.82,1.64-9.17-6.63-1.19.35-2,17.89,3.17ZM132.19,147c-.37,2-1.76,3.34-4.16,4a16.38,16.38,0,0,1-7.46,0,16,16,0,0,1-7-2.58q-3.06-2.18-2.55-5.2c.37-2,1.78-3.36,4.19-4a16.41,16.41,0,0,1,7.47,0,16.31,16.31,0,0,1,7,2.56c2,1.43,2.87,3.17,2.53,5.2m18.06,9-15.55-2.75,2-11.15,4.6.82-1.63,9.13,11,2ZM76.75,138.6l5.62,1-2-4.88Z"/>
    <path class="cls-1"
          d="M1.74,94.35A114.16,114.16,0,1,0,134,1.75,114.29,114.29,0,0,0,1.74,94.35m93.89,125a106.78,106.78,0,1,1,123.7-86.6,106.9,106.9,0,0,1-123.7,86.6"/>
    <path class="cls-1"
          d="M16.25,138.79c-.16-.87-.28-1.76-.52-2.6s-.56-1.65-.87-2.47l23.2-6.33,2.28,8.3c1.28,4.71.07,7.76-3.75,8.8-6,1.63-8.5-2.41-10.17-8.48Zm12-3.3a14.52,14.52,0,0,0,.85,2.17c1.21,2,3.36,2.32,5.42,1.76,2.71-.74,4.12-2.62,3.64-4.38L37.61,133Z"/>
    <path class="cls-1"
          d="M43.77,146.08l3.77,6.44c.82,1.43,2.18,3.58,2.25,5.25A5.19,5.19,0,0,1,47,162.93c-3,1.76-5.94.93-8.2-1.52-1.93,3.36-3.61,6.87-5.36,10.34L32.3,174c-.48-1-.93-1.91-1.47-2.84s-1.15-1.76-1.76-2.65l4.25-7.31c.54-.93,1.44-2.6,2.19-3.92l-.11-.22-9.71,5.68c-.37-.78-.74-1.6-1.17-2.34s-1-1.45-1.47-2.19Zm-7.08,10.26c1.57,3.34,4,4,7.1,2.21a8,8,0,0,0,1.43-1.06c2.23-2,.65-4.05-.43-5.9Z"/>
    <path class="cls-1"
          d="M47.15,190.25c-5.81-5.1-6.74-12-1.51-18,4.6-5.25,12.13-6.14,18.69-.39,7.51,6.57,5.08,13.81,1.55,17.93-4.48,5.16-12.27,6.07-18.74.41m2.2-13.36c-3,3.43-4.63,8.43-.68,11.88s9.44,1.11,13.27-3.27c3-3.41,4.81-8.7.86-12.17-3.66-3.21-8.27-2.34-13.44,3.56"/>
    <path class="cls-1"
          d="M76.53,207.86c-.78-.39-1.54-.85-2.34-1.19s-1.65-.61-2.49-.89L80.26,186a49.75,49.75,0,0,0-6.18-2.12,11.26,11.26,0,0,0,.76-1.32,9.16,9.16,0,0,0,.42-1.41l16.57,7.16a12.48,12.48,0,0,0-.75,1.28,10.48,10.48,0,0,0-.43,1.45,53.91,53.91,0,0,0-5.55-2.93Z"/>
    <path class="cls-1"
          d="M108.56,191.2a10.38,10.38,0,0,0-.43,1.45,8.68,8.68,0,0,0-.07,1.52,51.71,51.71,0,0,0-7.92-1.84l-1.26,7.42,3.6.63a32.13,32.13,0,0,0,4.29.41,9.66,9.66,0,0,0-.41,1.45,11.61,11.61,0,0,0-.09,1.52,30.77,30.77,0,0,0-4.19-1l-3.6-.61L97,210.89a66.49,66.49,0,0,0,8.07.87,8.85,8.85,0,0,0-.42,1.45,11.59,11.59,0,0,0-.08,1.52L91.41,212.5l4-23.53Z"/>
    <path class="cls-1"
          d="M133.64,209.61l-.48,3.08a14.9,14.9,0,0,1-6.75,2.17c-7.46.72-13.55-3.34-14.26-10.47-.88-9.11,5-13.88,12.6-14.61a16,16,0,0,1,7.29,1c-.21,1.21-.3,2.43-.46,3.69l-.49,0a7.35,7.35,0,0,0-6.11-2.65c-5.78.56-7.58,6.33-7.08,11.45.58,6,3.91,9.87,9.29,9.35a9.82,9.82,0,0,0,6-3.21Z"/>
    <path class="cls-1"
          d="M153.51,207.16c-.85.26-1.7.48-2.51.8s-1.6.74-2.38,1.13L140.74,189a46.05,46.05,0,0,0-5.88,2.86,11.27,11.27,0,0,0-.39-1.47,9.48,9.48,0,0,0-.7-1.3l16.79-6.61a8.61,8.61,0,0,0,.38,1.43,9.83,9.83,0,0,0,.71,1.35,51.52,51.52,0,0,0-6,1.84Z"/>
    <path class="cls-1"
          d="M164.48,172.77a9.92,9.92,0,0,0,.72,1.34,12.35,12.35,0,0,0,1,1.13,49.45,49.45,0,0,0-6.9,4.25l4.34,6.16,3-2.1a31.48,31.48,0,0,0,3.34-2.73,7.2,7.2,0,0,0,1.75,2.47A31.93,31.93,0,0,0,168,185.5l-3,2.1,5.14,7.29a70.55,70.55,0,0,0,6.33-5.07,11.42,11.42,0,0,0,.71,1.34,12.39,12.39,0,0,0,1,1.13L167.32,200l-13.76-19.52Z"/>
    <path class="cls-1"
          d="M175.38,160.74c4.87-5.7,10.87-4.88,15.38-1.3,6.22,4.9,6.44,12.19,2,17.82l-6.09,7.7-18.71-14.81Zm13,18.82,1.84-2.32c3-3.79,3.38-8.2-3-13.27-5.18-4.08-9.14-3.25-12.21.63l-2.12,2.69Z"/>
    <path class="cls-1"
          d="M91.56,27.88l10.85-13,5.54,1-2.6,14.78,2.84.5-.61,3.39-2.83-.5-.84,4.77L99.66,38l.85-4.77-9.6-1.69Zm9.54,2,1.77-10h-.07l-7.31,9Z"/>
    <path class="cls-1"
          d="M108.84,39.65l.67-3.85c.69-.44,1.66-1.08,2.91-1.91a45.12,45.12,0,0,0,3.84-2.71,29.43,29.43,0,0,0,3.58-3.2,7,7,0,0,0,1.81-3.25,2.87,2.87,0,0,0-.73-2.58A4.66,4.66,0,0,0,118.47,21a7.61,7.61,0,0,0-2.88.06,15.54,15.54,0,0,0-2.72.87l.31-3.87a15.47,15.47,0,0,1,7-.44q6.93,1.24,5.9,8A9.25,9.25,0,0,1,124.67,29,16.14,16.14,0,0,1,122,32a65.59,65.59,0,0,1-6.81,5.07l9.32,1.65-.63,3.59Z"/>
    <path class="cls-1"
          d="M144,26.45a10.54,10.54,0,0,0-1.7-1,6.84,6.84,0,0,0-2-.64,4.35,4.35,0,0,0-4.41,1.59,10.65,10.65,0,0,0-2.15,4.64l.05.08a5,5,0,0,1,4.72-1.54q6.41,1.3,5.27,8.14a9.41,9.41,0,0,1-2.84,5.65c-1.5,1.28-3.49,1.69-6,1.29-3-.62-4.81-2.09-5.46-4.43a11.15,11.15,0,0,1-.5-3.62,20.79,20.79,0,0,1,.33-4,19.51,19.51,0,0,1,3.48-8.55q2.65-3.71,7.95-2.91a14,14,0,0,1,4.53,1.64Zm-7.1,6.34a2.52,2.52,0,0,0-2.52.89,6.48,6.48,0,0,0-1.26,2.95,5.4,5.4,0,0,0,.24,3,2.69,2.69,0,0,0,2.14,1.67,2.47,2.47,0,0,0,2.5-.92,6,6,0,0,0,1.17-2.7A6.39,6.39,0,0,0,139,34.5a2.55,2.55,0,0,0-2.1-1.7"/>
    <polygon class="cls-1"
             points="149.97 23.25 164.26 25.77 163.6 29.57 152.35 47.32 147.52 46.47 159.17 28.57 149.34 26.83 149.97 23.25"/>
</svg>
