<svg id="fb-logo" xmlns="http://www.w3.org/2000/svg" width="36" height="36" viewBox="0 0 60 60">
  <defs>
    <style>
      #fb-logo .cls-1 {
        fill: #3664a2;
      }

      #fb-logo .cls-1, #fb-logo .cls-2 {
        fill-rule: evenodd;
      }

      #fb-logo .cls-2 {
        fill: #fff;
      }
    </style>
  </defs>
  <path id="Blue-2" data-name="Blue" class="cls-1" d="M2015.93,2134.26a117.647,117.647,0,0,0,117.68-117.69V118.435A117.641,117.641,0,0,0,2015.93.739H118.074A117.587,117.587,0,0,0,.438,118.435V2016.57a117.593,117.593,0,0,0,117.636,117.69H2015.93Z"/>
  <path id="Blue-3" data-name="Blue" class="cls-2" d="M1473.21,2134.26V1307.09H1749.6l41.52-320.906H1473.21V780.464c0-93.231,24.97-156.765,158.65-156.765l170.49,0.053V335.618c-29.5-3.919-130.7-11.9-248.44-11.9-245.81,0-413.96,149.281-413.96,424.867v237.6H860.759V1307.09H1139.88v827.17h333.33Z"/>
</svg>
