<svg id="instagran" xmlns="http://www.w3.org/2000/svg" viewBox="0 0 502.68 502.68" width="36" height="36">
    <defs>
        <style>
            #instagran .cls-1{fill:#bc2a8d;}
            #instagran .cls-2{fill:#fff;}
        </style>
    </defs>
    <title>instagran</title>
    <rect class="cls-1" width="502.68" height="502.68" rx="72" ry="72"/>
    <path class="cls-2"
          d="M250.4,78.07c57.2,0,64,.22,86.56,1.25,20.89,1,32.23,4.44,39.78,7.38a70.94,70.94,0,0,1,40.66,40.66c2.93,7.55,6.42,18.89,7.38,39.78,1,22.59,1.25,29.36,1.25,86.56s-.22,64-1.25,86.56c-1,20.89-4.44,32.23-7.38,39.78a70.94,70.94,0,0,1-40.66,40.66c-7.55,2.93-18.89,6.42-39.78,7.38-22.59,1-29.36,1.25-86.56,1.25s-64-.22-86.56-1.25c-20.89-1-32.23-4.44-39.78-7.38A70.94,70.94,0,0,1,83.4,380C80.46,372.49,77,361.15,76,340.26c-1-22.59-1.25-29.36-1.25-86.56s.22-64,1.25-86.56c1-20.89,4.44-32.23,7.38-39.78A70.94,70.94,0,0,1,124.05,86.7c7.55-2.93,18.89-6.42,39.78-7.38,22.59-1,29.36-1.25,86.56-1.25m0-38.6c-58.18,0-65.47.25-88.32,1.29s-38.37,4.66-52,10a109.54,109.54,0,0,0-62.65,62.65c-5.3,13.63-8.92,29.2-10,52s-1.29,30.14-1.29,88.32.25,65.47,1.29,88.32,4.66,38.37,10,52a109.54,109.54,0,0,0,62.65,62.65c13.63,5.3,29.2,8.92,52,10s30.14,1.29,88.32,1.29,65.47-.25,88.32-1.29,38.37-4.66,52-10A109.54,109.54,0,0,0,453.38,394c5.3-13.63,8.92-29.2,10-52s1.29-30.14,1.29-88.32-.25-65.47-1.29-88.32-4.66-38.37-10-52a109.54,109.54,0,0,0-62.65-62.65c-13.63-5.3-29.2-8.92-52-10s-30.14-1.29-88.32-1.29Z"/>
    <path class="cls-2"
          d="M250.4,143.69a110,110,0,1,0,110,110A110,110,0,0,0,250.4,143.69Zm0,181.41a71.41,71.41,0,1,1,71.41-71.41A71.41,71.41,0,0,1,250.4,325.1Z"/>
    <circle class="cls-2" cx="364.75" cy="139.34" r="25.71"/>
</svg>
