<svg id="sunday-times-top-100-companies-svg" data-name="Layer 1" xmlns="http://www.w3.org/2000/svg"
     viewBox="0 0 389.56 372.39" width="63" height="60">
    <defs>
        <style>#sunday-times-top-100-companies-svg .cls-1{fill:#70225a;}</style>
    </defs>
    <title>sunday-times-100-best-companies-variant-plum</title>
    <path class="cls-1"
          d="M325.81,51.77c-47.91,0-70.08,39.5-70.08,88.69s22.17,88.69,70.08,88.69,70.08-39.5,70.08-88.69-22.17-88.69-70.08-88.69m0,164.12c-23.45,0-24.72-35.42-24.72-75.43S302.37,65,325.81,65s24.72,35.42,24.72,75.43-1.27,75.43-24.72,75.43M170.36,51.77c-47.91,0-70.08,39.5-70.08,88.69s22.17,88.69,70.08,88.69,70.08-39.5,70.08-88.69-22.17-88.69-70.08-88.69m0,164.12c-23.45,0-24.72-35.42-24.72-75.43S146.91,65,170.36,65s24.72,35.42,24.72,75.43-1.27,75.43-24.72,75.43M78.62,73.17l2.55-18.6-3.82-3.06L10.06,64.76V76.49H36.31V215.12L17.2,218.95v7.14H96.71v-7.14l-18.09-3.82Z"
          transform="translate(-6.34 -9.13)"/>
    <path class="cls-1"
          d="M30.2,18.19C29.12,12.91,26,11,22.89,11h-.12V25.34c0,12.64.08,13.18.75,13.89a3.83,3.83,0,0,0,2.79.83v.87H11.12v-.87a3.83,3.83,0,0,0,2.79-.83c.66-.71.75-1.25.75-13.89V11h-.12c-3.12,0-6.24,1.91-7.32,7.19H6.34V9.54H31.08v8.65Z"
          transform="translate(-6.34 -9.13)"/>
    <path class="cls-1"
          d="M49.12,40.93v-.87a2.74,2.74,0,0,0,2.16-.71c.75-.75.83-1.46.83-13.39H43.42c0,11.93.08,12.64.83,13.39a2.75,2.75,0,0,0,2.16.71v.87H32.32v-.87a2.75,2.75,0,0,0,2.16-.71c.75-.75.83-1.5.83-14.14s-.08-13.35-.83-14.09a2.75,2.75,0,0,0-2.16-.71V9.54H46.42v.87a2.75,2.75,0,0,0-2.16.71c-.71.71-.83,1.37-.83,12.81h8.69c0-11.43-.12-12.1-.83-12.81a2.75,2.75,0,0,0-2.16-.71V9.54H63.21v.87a2.75,2.75,0,0,0-2.16.71c-.75.75-.83,1.46-.83,14.09s.08,13.39.83,14.14a2.75,2.75,0,0,0,2.16.71v.87Z"
          transform="translate(-6.34 -9.13)"/>
    <path class="cls-1"
          d="M87.7,40.93H64.87v-.87A2.75,2.75,0,0,0,67,39.35c.75-.75.83-1.5.83-14.14S67.78,11.87,67,11.12a2.75,2.75,0,0,0-2.16-.71V9.54H87.28l.12,8.65h-.87c-.91-4.24-2.79-7-7.15-7H76V23.93h1.62c3.66,0,5.45-.91,5.94-4.41h.87V30.7h-.87C83,27.25,81.25,26,77.59,26H76s0,6.73,0,7.9c0,3.74.67,5.36,4.36,5.36,4,0,5.95-2.62,6.94-7.19h.87Z"
          transform="translate(-6.34 -9.13)"/>
    <path class="cls-1"
          d="M107.36,41.35c-3.08,0-5.78-1.08-7-1.08a3.1,3.1,0,0,0-1.83.67H97.8V32h.87c.62,4.82,3.45,7.65,8.15,7.65,3.91,0,5.16-2.45,5.16-4.62,0-7.27-14.34-6.61-14.34-16.38,0-4.86,2.87-9.56,10-9.56,2.62,0,5.24,1,6.32,1a1.94,1.94,0,0,0,1.58-.54h.71v8.65h-.87c-.87-3.37-3-7.4-7.77-7.4-3.16,0-4.57,1.79-4.57,3.74,0,6.44,15.26,6,15.26,17,0,5.65-4.53,9.81-10.89,9.81"
          transform="translate(-6.34 -9.13)"/>
    <path class="cls-1"
          d="M144.57,15.11V28.46c0,7.61-2.74,12.89-11.35,12.89-8.15,0-11.56-4.66-11.56-9.77V20.31c0-6.36-.29-8.65-.83-9.19a2.74,2.74,0,0,0-2.16-.71V9.54h14.09v.87a2.74,2.74,0,0,0-2.16.71c-.58.58-.83,2.79-.83,9.48V32.87c0,4,2.12,5.95,5.7,5.95,4.41,0,6.73-3.33,6.73-10.14V15.11c0-3.33-.33-4.28-3.28-4.7V9.54h8.94v.87c-3,.42-3.28,1.37-3.28,4.7"
          transform="translate(-6.34 -9.13)"/>
    <path class="cls-1"
          d="M174.75,15.11V40.93h-4.37L154.21,18.61V35.36c0,3.33.33,4.28,3.29,4.7v.87h-8.94v-.87c3-.42,3.28-1.37,3.28-4.7V25.22c0-12.64-.08-13.35-.83-14.09a2.73,2.73,0,0,0-2.16-.71V9.54h10.31l13.22,18.54v-13c0-3.33-.33-4.28-3.28-4.7V9.54H178v.87c-3,.42-3.29,1.37-3.29,4.7"
          transform="translate(-6.34 -9.13)"/>
    <path class="cls-1"
          d="M194.37,40.93H179.69v-.87a2.74,2.74,0,0,0,2.16-.71c.75-.75.83-1.5.83-14.14s-.08-13.34-.83-14.09a2.75,2.75,0,0,0-2.16-.71V9.54h14c9.77,0,15.13,5.78,15.13,15.71,0,8.86-3.16,15.67-14.43,15.67M192.62,11.2h-1.83v23c0,3.12.54,5,4.12,5,4.12,0,5.45-5.28,5.45-14.09,0-7.73-1.87-13.93-7.73-13.93"
          transform="translate(-6.34 -9.13)"/>
    <path class="cls-1"
          d="M221.84,40.93v-.87c2.54-.25,3.83-.83,3.83-2.29,0-.54-.42-2.12-2.08-6.94h-8.07a45.51,45.51,0,0,0-1.83,6.57c0,1.66,1,2.62,2.91,2.62v.91H206.5v-.87c3.12-.62,3.7-1.17,5.36-6.11L220,9.54h5.45l9,26.07c1,3,1.66,4.24,3.87,4.45v.87Zm-2.41-22.29-3.24,10.15h6.74Z"
          transform="translate(-6.34 -9.13)"/>
    <path class="cls-1"
          d="M257,15.53l-5.41,11.39c0,11,.13,11.72.83,12.43.37.38,1,.67,2.7.71v.87H239.93v-.87c1.79,0,2.33-.33,2.7-.71.71-.71.83-1.41.83-12.43L237.81,16c-2.7-5.24-2.91-5.36-5.32-5.61V9.54h14.84v.87c-1.87.08-2.62.54-2.62,1.66,0,.5.21,1.08,1.5,3.66l4.2,8.44,3.53-7.44c1.12-2.37,1.75-3.78,1.75-4.62s-.54-1.62-2.33-1.71V9.54h8.56v.87c-2.49.33-2.87.79-4.95,5.11"
          transform="translate(-6.34 -9.13)"/>
    <path class="cls-1"
          d="M292.1,18.19C291,12.91,287.9,11,284.78,11h-.12V25.34c0,12.64.08,13.18.75,13.89a3.83,3.83,0,0,0,2.79.83v.87H273v-.87a3.83,3.83,0,0,0,2.79-.83c.66-.71.75-1.25.75-13.89V11h-.12c-3.12,0-6.24,1.91-7.32,7.19h-.87V9.54H293v8.65Z"
          transform="translate(-6.34 -9.13)"/>
    <path class="cls-1"
          d="M294.22,40.93v-.87a2.75,2.75,0,0,0,2.16-.71c.75-.75.83-1.5.83-14.14s-.08-13.35-.83-14.09a2.75,2.75,0,0,0-2.16-.71V9.54h14.09v.87a2.75,2.75,0,0,0-2.16.71c-.75.75-.83,1.46-.83,14.09s.08,13.39.83,14.14a2.75,2.75,0,0,0,2.16.71v.87Z"
          transform="translate(-6.34 -9.13)"/>
    <path class="cls-1"
          d="M331.3,40.93v-.87a2.75,2.75,0,0,0,2.16-.71c.75-.75.83-1.5.83-14.14V16.78L326.06,41h-2.58L315,16.78V35.36c0,3.33.33,4.28,3.29,4.7v.87H310v-.87c2.62-.37,3-1.37,3-4.7V25.22c0-12.64-.08-13.35-.83-14.09a2.75,2.75,0,0,0-2.16-.71V9.54h11.68l6.4,19.08,6.61-19.08H345.4v.87a2.75,2.75,0,0,0-2.16.71c-.75.75-.83,1.46-.83,14.09s.08,13.39.83,14.14a2.75,2.75,0,0,0,2.16.71v.87Z"
          transform="translate(-6.34 -9.13)"/>
    <path class="cls-1"
          d="M369.88,40.93H347.06v-.87a2.75,2.75,0,0,0,2.16-.71c.75-.75.83-1.5.83-14.14s-.08-13.35-.83-14.09a2.75,2.75,0,0,0-2.16-.71V9.54h22.41l.13,8.65h-.87c-.91-4.24-2.78-7-7.15-7h-3.41V23.93h1.62c3.66,0,5.45-.91,5.95-4.41h.87V30.7h-.87c-.5-3.45-2.29-4.74-5.95-4.74h-1.62s0,6.73,0,7.9c0,3.74.66,5.36,4.37,5.36,3.95,0,5.95-2.62,6.94-7.19h.87Z"
          transform="translate(-6.34 -9.13)"/>
    <path class="cls-1"
          d="M381.77,41.35c-3.08,0-5.78-1.08-7-1.08a3.1,3.1,0,0,0-1.83.67h-.75l.5-8.9h.87c.33,4.74,3,7.65,7.65,7.65,3.91,0,5.16-2.45,5.16-4.62,0-7.27-14.34-6.61-14.34-16.38,0-4.86,2.87-9.56,10-9.56,2.62,0,5.24,1,6.32,1a1.94,1.94,0,0,0,1.58-.54h.71v8.65h-.87c-.87-3.37-3-7.4-7.77-7.4-3.16,0-4.57,1.79-4.57,3.74,0,6.44,15.26,6,15.26,17,0,5.65-4.53,9.81-10.89,9.81"
          transform="translate(-6.34 -9.13)"/>
    <path class="cls-1"
          d="M330.73,289.18a2.68,2.68,0,0,1,3,3v1.3c0,1.57-.4,3-3,3h-4.34v-7.21Zm10.34,16.47c-.54-3.4-1.83-5.37-4-6.36,3.18-1.25,4.65-3.71,4.65-7.12v-.49c0-4.57-2.78-8.86-10.16-8.86h-13.2v31.33h8V302.74h3.18c2.15,0,3.22.63,3.67,3.54l1.16,7.88h8Zm-35.63-13.52c0-2-1.52-3.4-3.89-3.4s-3.89,1.39-3.89,3.4v12.71c0,2,1.52,3.4,3.89,3.4s3.89-1.39,3.89-3.4Zm-15.8,0c0-5.41,4.48-9.76,11.91-9.76s11.91,4.34,11.91,9.76v12.71c0,5.42-4.48,9.76-11.91,9.76s-11.91-4.34-11.91-9.76Zm-3-3v-6.36H265.83v31.33h8V302.74h10.47v-6.31H273.84v-7.25Zm-32.18,25L243.1,297.86l10.92-15h-9.26l-9.31,13.61V282.82h-8v31.33h8v-14l9.31,14Zm-42.92-25a2.68,2.68,0,0,1,3,3v1.3c0,1.57-.4,3-3,3H207.2v-7.21Zm10.34,16.47c-.54-3.4-1.84-5.37-4-6.36,3.18-1.25,4.65-3.71,4.65-7.12v-.49c0-4.57-2.78-8.86-10.16-8.86h-13.2v31.33h8V302.74h3.18c2.15,0,3.22.63,3.67,3.54l1.16,7.88h8Zm-35.63-13.52c0-2-1.52-3.4-3.89-3.4s-3.89,1.39-3.89,3.4v12.71c0,2,1.52,3.4,3.89,3.4s3.89-1.39,3.89-3.4Zm-15.8,0c0-5.41,4.48-9.76,11.91-9.76s11.91,4.34,11.91,9.76v12.71c0,5.42-4.48,9.76-11.91,9.76s-11.91-4.34-11.91-9.76Zm-10.11-9.31-3.85,19.87-4.07-19.87h-8.23l-4.16,20-3.76-20h-8.46L136,314.37h8l4.07-19.15,4.07,19.15h8l8.23-31.55Zm-51.92,9.31c0-2-1.52-3.4-3.89-3.4s-3.89,1.39-3.89,3.4v12.71c0,2,1.52,3.4,3.89,3.4s3.89-1.39,3.89-3.4Zm-15.8,0c0-5.41,4.48-9.76,11.91-9.76s11.9,4.34,11.9,9.76v12.71c0,5.42-4.48,9.76-11.9,9.76s-11.91-4.34-11.91-9.76Zm-3-9.31H68.86v6.36h6.4v25h8v-25h6.4Z"
          transform="translate(-6.34 -9.13)"/>
    <path class="cls-1"
          d="M380.27,267.29c0,5.41-4.7,9.31-12.13,9.31s-11.68-4.34-11.68-9.76V265h7.61v1.88c0,2.42,1.92,3.4,4.3,3.4s3.89-.94,3.89-2.51v-.27c0-4.52-15.35-3.13-15.35-13.79v-.45c0-5.37,4-8.86,11.46-8.86s11.46,4.34,11.46,9.76V256h-7.61v-1.88c0-2-1.48-3.4-3.85-3.4s-3.45,1-3.45,2.51v.22c0,4.74,15.35,2.73,15.35,13.38Zm-26.9-16.11v-6.36H332.56v31.33h20.81V269.8h-12.8v-6.36H351v-6.36H340.58v-5.91Zm-34.46,25h8V244.82h-8Zm-13.25-31.33v9.76c0,1.79.09,4.25.22,7.07l-9.31-16.83h-8.46v31.33h7.61v-9.76c0-1.88-.09-4.39-.22-7.34l9.76,17.1h8V244.82Zm-37,18.53,2.19-8.19,2.19,8.19Zm7.83,12.8H285L275.1,244.6h-8l-10.29,31.55h8.46l1.75-6.49h7.79ZM249.76,256c0,2.42-1.3,3.4-3.49,3.4h-3.85v-8.19h3.85a3.22,3.22,0,0,1,3.49,3.4Zm-15.35-11.14v31.33h8V265.72h3.85c7.43,0,11.5-4.34,11.5-9.76v-1.39c0-5.42-4.07-9.76-11.5-9.76Zm-13.65,0L215,256.06l-6-11.23h-8.46v31.33h7.61v-9.76c0-2-.09-4.74-.27-8l3.4,6.62h6.31l3.36-6.31c-.13,3.09-.22,5.73-.22,7.65v9.76h8V244.82Zm-33.12,9.31c0-2-1.52-3.4-3.89-3.4s-3.89,1.39-3.89,3.4v12.71c0,2,1.52,3.4,3.89,3.4s3.89-1.39,3.89-3.4Zm-15.8,0c0-5.41,4.47-9.76,11.9-9.76s11.9,4.34,11.9,9.76v12.71c0,5.42-4.47,9.76-11.9,9.76s-11.9-4.34-11.9-9.76ZM160.43,265H168v1.88c0,5.42-4.48,9.76-11.91,9.76s-11.91-4.34-11.91-9.76V254.13c0-5.41,4.48-9.76,11.91-9.76S168,248.72,168,254.13V256h-7.61v-1.88c0-2-1.92-3.4-4.3-3.4s-3.89,1.39-3.89,3.4v12.71c0,2.42,1.52,3.4,3.89,3.4s4.3-1,4.3-3.4ZM132,244.82H111.16v6.36h6.4v25h8v-25H132Zm-23.32,22.47c0,5.41-4.7,9.31-12.13,9.31s-11.68-4.34-11.68-9.76V265h7.61v1.88c0,2.42,1.93,3.4,4.3,3.4s3.89-.94,3.89-2.51v-.27c0-4.52-15.35-3.13-15.35-13.79v-.45c0-5.37,4-8.86,11.46-8.86s11.46,4.34,11.46,9.76V256h-7.61v-1.88c0-2-1.48-3.4-3.85-3.4s-3.45,1-3.45,2.51v.22c0,4.74,15.35,2.73,15.35,13.38Zm-26.9-16.11v-6.36H60.94v31.33H81.75V269.8H69v-6.36H79.42v-6.36H69v-5.91ZM48.68,266.84c0,2.42-1.3,3-3,3H40.44v-6.36h5.19a2.77,2.77,0,0,1,3,3Zm-4-15.67c1.34,0,2.64.54,2.64,2.51v.9c0,2-1.3,2.51-2.64,2.51H40.44v-5.91Zm10.65,1.88c0-5.37-3.67-8.24-10.21-8.24H32.43v31.33h13.2c7.39,0,11.06-3.49,11.06-8.86v-.49a7.67,7.67,0,0,0-4.7-7.12,6.82,6.82,0,0,0,3.36-6.18Z"
          transform="translate(-6.34 -9.13)"/>
    <path class="cls-1"
          d="M230.43,372.19V338.71H211.17v8.52h8.46v25h-8.46v8.52h27.72v-8.52Zm-42.06-21c0-2.7,2-4.56,5.22-4.56s5.16,1.86,5.16,4.56v17c0,2.7-2,4.56-5.16,4.56s-5.22-1.86-5.22-4.56Zm21.18,0c0-7.26-6.06-13.08-16-13.08s-16,5.82-16,13.08v17c0,7.26,6,13.08,16,13.08s16-5.82,16-13.08Zm-34.86,0c0-7.26-6.06-13.08-16-13.08s-15.36,5.82-15.36,13.08v2.34h10.2v-2.34c0-2.7,2-4.56,5.16-4.56s5.22,1.86,5.22,4.56v.3c0,6.42-21.18,6.36-21.18,20.7v8.52h31.92v-8.52H153.51v-.3c0-6.12,21.18-5.82,21.18-20.1Z"
          transform="translate(-6.34 -9.13)"/>
    <path class="cls-1"
          d="M255.24,355.21c9.93,0,16,5.6,16,12.88v.3c0,7.28-6.08,13.12-16,13.12s-16-5.84-16-13.12V351.3c0-7.28,6-13.12,16-13.12s15.41,5.84,15.41,13.12v2.35H260.41V351.3c0-2.71-2-4.58-5.18-4.58S250,348.59,250,351.3v3.91Zm5.18,12.88c0-2.71-2-4.33-5.18-4.33H250v4.64c0,2.71,2,4.57,5.24,4.57s5.18-1.87,5.18-4.57Z"
          transform="translate(-6.34 -9.13)"/>
</svg>
