<?xml version="1.0" encoding="utf-8"?>
<!-- Generated by IcoMoon.io -->
<!DOCTYPE svg PUBLIC "-//W3C//DTD SVG 1.1//EN" "http://www.w3.org/Graphics/SVG/1.1/DTD/svg11.dtd">
<svg version="1.1" xmlns="http://www.w3.org/2000/svg" xmlns:xlink="http://www.w3.org/1999/xlink" viewBox="0 0 32 32">
<path fill="#444" d="M7.172 20.413c1.379 2.543 3.192 4.95 5.468 6.76 0.639 0.514 1.322 0.973 2.035 1.377 2.512 1.425 5.42 1.611 8.175 0.881 0.709-0.188 1.463-0.488 2.046-0.95 0.846-0.676 2.126-1.663 2.078-2.098 0.001-0.045 0.003-0.084 0.003-0.113 0.003-0.572-0.374-0.826-1.011-1.365-1.192-1.029-2.155-2.127-3.219-3.001-0.611-0.535-1.009-1.12-1.413-1.163-0.051-0.010-0.105-0.014-0.162-0.014-0.782-0.052-1.564 0.823-2.039 1.345-0.536 0.585-0.848 1.535-1.774 1.535-0.924-0.008-1.875-0.544-2.396-0.77-2.809-1.313-4.785-4.933-4.958-7.979-0.005-0.079-0.005-0.149-0.005-0.216 0-1.014 0.265-1.976 0.725-2.877 0.303-0.592 0.84-0.357 1.365-0.472 0.906-0.204 2.22-0.293 2.764-1.169 0.408-0.653-0.34-2.905-0.527-3.863-0.16-0.818-0.399-1.617-0.566-2.433-0.108-0.53-0.098-1.28-0.652-1.567-0.643-0.331-1.751 0.181-2.345 0.441-2.636 1.147-4.752 3.521-5.407 6.337-0.45 1.953-0.407 3.999-0.096 5.973 0.298 1.905 0.994 3.713 1.912 5.404z"></path>
</svg>
